<svg width="40" height="40" viewBox="0 0 40 40" fill="none" xmlns="http://www.w3.org/2000/svg">
  <!-- Main circle with gradient -->
  <defs>
    <linearGradient id="logoGradientDark" x1="0%" y1="0%" x2="100%" y2="100%">
      <stop offset="0%" style="stop-color:#a8edea;stop-opacity:1" />
      <stop offset="100%" style="stop-color:#fed6e3;stop-opacity:1" />
    </linearGradient>
    <linearGradient id="accentGradientDark" x1="0%" y1="0%" x2="100%" y2="100%">
      <stop offset="0%" style="stop-color:#4facfe;stop-opacity:1" />
      <stop offset="100%" style="stop-color:#00f2fe;stop-opacity:1" />
    </linearGradient>
  </defs>
  
  <!-- Background circle -->
  <circle cx="20" cy="20" r="18" fill="url(#logoGradientDark)" opacity="0.2"/>
  
  <!-- Robot head -->
  <rect x="13" y="12" width="14" height="10" rx="2" fill="url(#logoGradientDark)" opacity="0.9"/>
  
  <!-- Eyes -->
  <circle cx="16" cy="16" r="1.5" fill="#1a1a1a"/>
  <circle cx="24" cy="16" r="1.5" fill="#1a1a1a"/>
  
  <!-- Antenna -->
  <line x1="20" y1="12" x2="20" y2="9" stroke="url(#logoGradientDark)" stroke-width="1.5" stroke-linecap="round"/>
  <circle cx="20" cy="8" r="1.5" fill="url(#accentGradientDark)"/>
  
  <!-- Body with AI symbol -->
  <rect x="12" y="22" width="16" height="11" rx="2.5" fill="url(#logoGradientDark)" opacity="0.9"/>
  
  <!-- AI Circuit pattern inside body -->
  <path d="M 15 25 L 17 27 L 19 25 M 21 25 L 23 27 L 25 25" 
        stroke="#1a1a1a" 
        stroke-width="1.2" 
        stroke-linecap="round" 
        fill="none"/>
  <circle cx="17" cy="30" r="0.8" fill="url(#accentGradientDark)"/>
  <circle cx="20" cy="30" r="0.8" fill="url(#accentGradientDark)"/>
  <circle cx="23" cy="30" r="0.8" fill="url(#accentGradientDark)"/>
  
  <!-- Arms -->
  <rect x="8" y="24" width="4" height="6" rx="1.5" fill="url(#logoGradientDark)" opacity="0.8"/>
  <rect x="28" y="24" width="4" height="6" rx="1.5" fill="url(#logoGradientDark)" opacity="0.8"/>
  
  <!-- Accent dots -->
  <circle cx="10" cy="27" r="0.7" fill="url(#accentGradientDark)"/>
  <circle cx="30" cy="27" r="0.7" fill="url(#accentGradientDark)"/>
</svg>
